<?xml version="1.0" standalone="no"?>
<!DOCTYPE svg PUBLIC "-//W3C//DTD SVG 20010904//EN"
 "http://www.w3.org/TR/2001/REC-SVG-20010904/DTD/svg10.dtd">
<svg version="1.0" xmlns="http://www.w3.org/2000/svg"
 width="188.000000pt" height="188.000000pt" viewBox="0 0 188.000000 188.000000"
 preserveAspectRatio="xMidYMid meet">
<metadata>
Created by potrace 1.14, written by Peter Selinger 2001-2017
</metadata>
<g transform="translate(0.000000,188.000000) scale(0.100000,-0.100000)"
fill="#000000" stroke="none">
<path d="M930 1868 c0 -10 -4 -18 -10 -18 -5 0 -10 -4 -10 -9 0 -6 -17 -38
-37 -73 -21 -35 -36 -66 -35 -70 1 -5 -2 -8 -8 -8 -5 0 -10 -7 -10 -16 0 -9
-5 -12 -12 -8 -7 5 -8 3 -3 -6 5 -8 2 -17 -7 -24 -16 -12 -16 -11 -24 -43 -4
-13 -11 -23 -16 -23 -5 0 -6 -4 -3 -10 3 -5 2 -10 -2 -10 -5 0 -24 -29 -42
-65 -19 -36 -38 -65 -43 -65 -5 0 -6 -5 -3 -10 3 -6 0 -13 -9 -16 -8 -3 -12
-12 -9 -20 3 -8 0 -14 -6 -14 -6 0 -11 -9 -11 -21 0 -11 -4 -18 -9 -14 -5 3
-12 1 -16 -5 -3 -5 -1 -10 6 -10 7 0 5 -6 -6 -13 -11 -9 -15 -19 -10 -27 5 -9
4 -11 -4 -6 -6 4 -14 0 -18 -11 -3 -10 -15 -30 -25 -45 -10 -14 -18 -31 -18
-37 0 -5 -12 -27 -26 -48 -14 -21 -30 -48 -35 -60 -5 -13 -13 -23 -19 -23 -6
0 -9 -4 -5 -9 3 -6 -5 -20 -17 -32 -13 -12 -17 -19 -11 -15 8 4 5 -6 -5 -23
-9 -17 -21 -31 -25 -31 -5 0 -5 -4 -2 -10 3 -5 1 -10 -4 -10 -6 0 -11 -7 -11
-15 0 -9 -6 -18 -14 -21 -8 -3 -12 -12 -9 -20 3 -8 1 -14 -5 -14 -5 0 -12 -8
-16 -17 -11 -35 -68 -128 -76 -126 -4 1 -7 -5 -6 -15 2 -9 -2 -22 -8 -29 -30
-34 -36 -43 -29 -43 4 0 -1 -7 -11 -15 -14 -11 -16 -15 -5 -15 10 -1 9 -3 -3
-11 -10 -5 -18 -17 -18 -24 0 -8 -4 -15 -10 -15 -5 0 -10 -6 -10 -14 0 -7 -9
-25 -20 -38 -10 -14 -17 -28 -14 -30 2 -3 -2 -11 -11 -18 -8 -7 -15 -19 -15
-26 0 -8 -4 -14 -10 -14 -5 0 -10 -9 -10 -21 0 -11 -4 -18 -8 -15 -5 3 -9 -1
-9 -9 0 -8 4 -12 8 -9 4 2 10 0 14 -6 3 -5 1 -10 -5 -10 -6 0 -8 -4 -5 -10 3
-5 1 -10 -4 -10 -6 0 -11 -8 -10 -17 0 -10 3 -13 5 -6 4 8 13 9 27 5 12 -4 89
-7 170 -6 81 0 150 -3 153 -8 3 -4 10 -5 16 -2 6 4 8 2 4 -4 -3 -6 -15 -9 -26
-7 -19 4 -19 3 -3 -28 15 -30 15 -31 -1 -18 -14 12 -16 12 -10 -4 6 -14 4 -16
-6 -10 -8 5 -11 4 -7 -3 4 -5 16 -8 26 -5 21 5 35 29 26 44 -3 4 2 16 12 26
15 15 36 18 116 19 l97 0 0 -28 c0 -15 -5 -28 -12 -28 -6 0 -9 -3 -5 -6 3 -4
0 -22 -8 -40 -8 -19 -11 -34 -7 -34 4 0 2 -4 -3 -8 -6 -4 -16 -19 -24 -34 -8
-15 -27 -32 -43 -37 -16 -6 -27 -15 -24 -20 3 -5 -10 -11 -30 -13 -19 -2 -38
0 -41 5 -3 6 -1 7 5 3 7 -4 12 -2 12 3 0 6 -7 11 -16 11 -8 0 -12 5 -9 10 3 6
-1 10 -9 10 -9 0 -16 3 -17 8 0 4 -3 16 -5 27 -3 11 -5 32 -5 47 1 21 -3 26
-14 22 -17 -7 -20 -24 -4 -24 5 0 7 -5 4 -10 -4 -6 -12 -7 -18 -4 -8 5 -8 3 1
-7 6 -7 12 -21 12 -31 0 -10 6 -18 13 -18 8 0 7 -4 -3 -10 -10 -6 -11 -10 -2
-10 6 0 12 -6 12 -13 0 -22 50 -41 115 -43 54 -2 58 -1 41 12 -16 11 -21 11
-27 2 -5 -8 -7 -4 -6 10 1 22 17 32 17 10 0 -6 3 -9 6 -5 4 3 13 -1 22 -10 14
-14 16 -14 22 2 3 9 10 17 15 17 17 1 45 24 38 31 -3 4 1 7 10 7 10 0 16 3 15
8 -3 12 24 62 34 62 4 0 7 3 6 8 0 4 2 15 5 25 4 9 9 24 12 33 3 8 9 13 14 10
5 -3 7 2 4 13 -3 10 1 23 9 27 7 5 245 10 528 11 582 2 548 1 535 11 -16 11
-18 44 -3 53 10 7 10 9 1 9 -7 0 -13 9 -13 20 0 11 -4 20 -10 20 -5 0 -10 7
-10 15 0 9 -6 18 -14 21 -8 3 -12 12 -9 20 3 8 0 14 -6 14 -6 0 -11 7 -11 15
0 8 -5 15 -11 15 -5 0 -7 4 -4 10 3 5 1 10 -6 10 -7 0 -10 3 -6 6 3 4 -1 13
-9 21 -8 8 -12 19 -9 24 4 5 2 9 -3 9 -5 0 -15 14 -22 30 -7 17 -17 30 -23 30
-6 0 -7 3 -4 7 4 3 -1 12 -11 20 -9 8 -11 11 -3 7 8 -4 3 8 -12 28 -15 19 -24
38 -20 41 3 4 1 7 -5 7 -7 0 -12 7 -12 15 0 8 -4 15 -10 15 -5 0 -10 7 -10 15
0 8 -5 15 -11 15 -6 0 -9 7 -5 15 3 8 2 15 -2 15 -4 0 -16 17 -27 38 -11 20
-24 40 -28 43 -5 3 -9 10 -10 15 -1 5 -6 8 -12 6 -5 -2 -7 0 -2 4 4 4 -1 16
-10 27 -10 11 -12 17 -5 13 6 -4 12 -2 12 3 0 6 -4 11 -8 11 -8 0 -93 141 -94
157 -1 4 -8 13 -16 19 -9 7 -12 16 -7 24 5 9 4 11 -3 6 -7 -4 -12 -1 -12 7 0
8 -7 20 -15 27 -8 7 -12 16 -9 21 3 5 1 9 -4 9 -4 0 -14 16 -22 35 -8 19 -17
35 -22 35 -4 0 -8 7 -8 15 0 8 -5 15 -11 15 -6 0 -8 7 -5 15 3 9 -1 18 -9 21
-8 4 -15 12 -15 20 0 8 -5 14 -11 14 -5 0 -7 5 -4 10 3 6 1 10 -6 10 -7 0 -10
3 -6 6 3 3 -3 15 -14 27 -10 11 -19 29 -19 39 0 11 -4 16 -10 13 -5 -3 -10 3
-10 14 0 12 -4 21 -10 21 -5 0 -10 9 -10 20 0 12 -7 20 -17 20 -15 0 -16 2 -3
10 9 6 10 10 3 10 -7 0 -20 17 -30 38 -9 20 -23 43 -30 50 -7 8 -11 18 -8 23
4 5 1 9 -4 9 -6 0 -11 7 -11 15 0 8 -4 15 -10 15 -5 0 -10 7 -10 15 0 8 -5 15
-11 15 -5 0 -8 4 -5 9 3 4 -6 21 -19 37 -19 23 -25 25 -25 12z m-27 -488 c4 0
5 5 1 11 -5 8 -2 9 11 1 11 -6 30 -6 47 -1 17 5 26 4 23 -2 -8 -12 2 -11 27 2
15 8 19 8 14 0 -4 -6 -2 -11 3 -11 6 0 11 6 11 13 0 8 3 9 8 1 4 -6 16 -10 26
-8 11 1 30 -8 42 -22 13 -13 18 -24 12 -24 -7 0 -4 -6 7 -13 10 -8 15 -19 11
-26 -5 -7 -2 -10 6 -9 7 2 12 -3 11 -9 -2 -7 2 -13 8 -13 5 0 7 -4 4 -10 -3
-5 -1 -10 5 -10 6 0 9 -4 6 -9 -3 -5 1 -12 10 -15 8 -3 12 -10 9 -16 -3 -6 1
-13 10 -16 13 -5 13 -9 3 -22 -9 -11 -9 -14 -1 -9 7 5 16 -1 22 -12 14 -25 14
-31 0 -31 -5 0 -8 4 -5 8 3 5 -6 15 -19 22 -14 7 -25 19 -25 27 0 7 -7 13 -15
13 -8 0 -15 4 -15 9 0 5 -7 12 -16 15 -8 3 -12 2 -9 -4 9 -15 -2 -12 -19 6 -9
8 -26 16 -39 18 -13 1 -28 6 -35 10 -7 4 -16 4 -22 1 -5 -3 -10 -2 -10 2 0 5
-38 9 -84 9 -47 0 -84 -3 -84 -6 1 -18 -4 -23 -12 -10 -5 8 -10 10 -10 4 0
-18 30 -39 56 -39 12 -1 20 3 18 7 -3 5 -13 7 -21 6 -9 -2 -18 2 -20 9 -5 15
33 9 55 -9 9 -7 13 -8 10 -3 -3 6 1 16 8 23 13 12 14 9 9 -15 -6 -25 -5 -26 7
-11 10 11 19 14 29 7 11 -7 11 -9 -4 -9 -10 0 -16 -4 -12 -9 3 -5 1 -12 -5
-16 -6 -4 -8 -11 -5 -16 4 -5 -1 -18 -9 -30 -8 -12 -12 -28 -9 -35 3 -8 0 -14
-6 -14 -6 0 -11 -10 -11 -23 0 -13 -6 -29 -12 -36 -11 -11 -10 -12 2 -6 12 6
13 5 3 -6 -7 -7 -13 -21 -13 -31 0 -10 -4 -18 -8 -18 -4 0 -9 -12 -10 -26 -1
-15 -8 -34 -15 -42 -10 -13 -9 -14 1 -8 7 4 5 -6 -6 -26 -10 -18 -18 -42 -17
-53 0 -11 -6 -26 -13 -34 -7 -7 -11 -20 -8 -27 3 -8 1 -14 -4 -14 -5 0 -7 -7
-4 -15 4 -8 1 -15 -6 -15 -7 0 -10 -6 -7 -14 3 -7 -2 -24 -10 -37 -9 -12 -11
-19 -5 -15 7 4 6 -4 -3 -20 -8 -15 -12 -31 -9 -36 3 -4 1 -8 -5 -8 -5 0 -11
-10 -13 -22 -2 -17 -10 -23 -28 -23 -18 0 -26 -6 -28 -22 -2 -12 -10 -27 -18
-33 -17 -15 -18 -7 -3 23 10 22 10 22 -6 2 -9 -11 -18 -18 -21 -17 -3 2 -9 0
-12 -4 -4 -4 -2 -4 4 -1 7 4 14 -3 17 -15 l6 -22 20 22 c14 17 21 19 25 10 3
-7 3 1 0 19 -3 26 -1 31 11 27 17 -7 20 -24 4 -24 -8 0 -9 -4 0 -13 6 -8 8
-17 4 -21 -4 -3 -8 -16 -10 -29 -2 -12 -9 -26 -15 -32 -8 -7 -9 -6 -4 2 7 12
-6 12 -76 -2 -11 -2 -15 2 -11 11 3 8 9 11 14 8 5 -3 6 1 3 9 -3 8 -16 15 -30
15 -22 0 -23 -2 -8 -13 12 -8 14 -14 6 -19 -7 -4 -12 -2 -12 3 0 6 -9 11 -21
11 -11 0 -17 -4 -14 -10 3 -5 1 -10 -4 -10 -6 0 -11 6 -11 13 0 9 -2 9 -8 1
-4 -7 -26 -11 -49 -10 -24 1 -43 -2 -43 -6 0 -5 -5 -6 -12 -2 -18 11 -68 13
-68 2 0 -5 -5 -6 -12 -2 -7 4 -34 6 -61 5 l-50 -3 8 29 c3 15 12 31 18 35 7 4
8 8 4 8 -5 0 -1 7 7 16 9 8 16 22 16 30 0 8 5 12 11 9 6 -4 9 0 7 8 -2 9 6 23
17 32 11 9 14 13 6 10 -14 -8 9 33 38 69 9 10 15 19 13 20 -2 0 0 9 3 18 4 10
11 15 16 12 5 -3 6 2 3 10 -3 9 -1 16 5 16 6 0 11 8 11 18 0 11 9 27 20 37 11
10 17 22 14 26 -3 5 0 9 5 9 6 0 11 7 11 15 0 8 5 15 11 15 5 0 7 5 4 10 -3 6
-1 10 5 10 6 0 8 5 5 10 -3 6 -2 10 3 10 5 0 15 14 22 30 7 17 17 30 22 30 5
0 6 5 3 10 -3 6 1 13 9 16 9 3 14 9 11 13 -2 4 2 8 10 8 12 0 12 -4 -2 -20
-15 -17 -15 -19 -2 -15 12 5 14 0 11 -23 -3 -17 0 -29 7 -29 6 0 11 -6 11 -12
1 -7 17 -23 36 -35 19 -13 32 -18 29 -13 -7 11 8 14 19 3 3 -4 16 -8 28 -10
12 -2 19 -1 16 3 -5 5 -14 7 -48 13 -3 1 2 5 10 10 8 6 19 7 25 3 22 -14 44
-12 38 3 -4 13 -8 13 -22 3 -14 -12 -15 -11 -2 5 10 13 17 15 27 6 10 -8 14
-8 14 0 0 6 6 10 13 9 7 -2 11 7 10 24 -1 16 3 27 9 25 16 -3 17 47 1 69 -7
10 -13 12 -13 5 0 -7 -4 -9 -10 -6 -6 3 -7 -1 -4 -10 4 -9 13 -14 20 -11 8 3
11 0 7 -9 -3 -8 -9 -12 -14 -9 -5 3 -9 2 -8 -3 3 -20 -2 -33 -13 -31 -7 2 -12
-4 -10 -13 2 -16 -23 -29 -63 -32 -11 -1 -19 -8 -17 -14 1 -7 -2 -13 -8 -13
-5 0 -10 6 -10 13 0 7 -13 17 -29 23 -22 9 -30 19 -33 45 -3 19 -1 36 5 38 5
2 -1 10 -14 17 -13 7 -18 13 -11 14 7 0 10 5 6 12 -4 7 -3 8 5 4 6 -4 9 -12 6
-17 -4 -5 -2 -9 3 -9 16 0 21 13 12 30 -12 23 -2 32 22 19 19 -10 19 -9 3 15
-16 23 -15 25 4 36 12 6 21 15 21 21 0 6 -5 7 -12 3 -7 -4 -8 -3 -4 4 4 7 19
10 34 7 20 -4 22 -3 8 3 -26 11 -29 40 -4 53 11 6 17 17 14 25 -3 8 -1 14 4
14 6 0 10 6 10 13 0 7 8 22 18 33 10 11 16 26 14 33 -3 8 0 11 7 7 6 -4 11 -1
11 7 0 8 8 24 19 35 15 18 27 21 64 18 32 -2 45 0 40 8 -3 6 0 5 8 -1 7 -7 17
-13 22 -13z m92 -140 c-3 -5 -12 -10 -18 -10 -7 0 -6 4 3 10 19 12 23 12 15 0z
m143 -98 c7 -9 16 -16 20 -14 3 2 9 -4 12 -13 3 -9 10 -16 15 -16 6 1 10 -2
11 -6 1 -10 22 -62 31 -76 4 -6 1 -7 -6 -2 -10 6 -11 3 -2 -12 7 -14 7 -24 -2
-33 -10 -10 -9 -11 2 -5 11 6 13 4 7 -11 -5 -10 -10 -28 -13 -39 -3 -11 -7
-27 -10 -35 -4 -8 -5 -18 -5 -22 1 -5 -3 -8 -8 -8 -6 0 -10 -6 -10 -14 0 -8
-10 -22 -22 -30 -12 -9 -18 -16 -14 -16 5 0 -4 -11 -20 -25 -16 -14 -33 -25
-37 -25 -5 0 -5 -5 -2 -10 4 -6 3 -10 -2 -9 -9 2 -46 -12 -53 -21 -11 -12 -62
-41 -56 -31 4 6 -9 0 -30 -14 -20 -14 -46 -25 -58 -25 -17 0 -18 2 -6 10 8 5
11 10 6 10 -5 0 -4 6 1 13 5 6 9 19 8 27 0 8 3 17 7 20 6 5 13 30 25 92 3 15
9 26 13 23 5 -3 7 6 5 20 -1 14 2 28 7 31 4 3 6 10 3 15 -4 5 -2 9 3 9 8 0 10
6 13 48 1 9 8 25 15 36 7 10 10 25 7 32 -3 8 0 14 6 14 6 0 11 13 11 29 0 17
4 32 10 36 5 3 7 12 3 20 -3 8 1 15 8 15 7 0 9 3 6 7 -4 3 -1 13 6 21 10 13 9
15 -3 8 -9 -4 -8 -2 2 7 10 8 14 17 10 22 -4 4 11 -3 33 -15 22 -12 46 -29 53
-38z m132 -36 c0 -3 -4 -8 -10 -11 -5 -3 -10 -1 -10 4 0 6 5 11 10 11 6 0 10
-2 10 -4z m20 -37 c0 -6 -4 -7 -10 -4 -5 3 -10 11 -10 16 0 6 5 7 10 4 6 -3
10 -11 10 -16z m14 -30 c-2 -4 2 -14 10 -22 8 -8 12 -17 9 -21 -4 -3 -1 -6 6
-6 7 0 9 -4 6 -10 -3 -5 -2 -10 3 -10 5 0 15 -12 23 -27 7 -16 21 -39 31 -52
10 -13 16 -27 13 -31 -3 -4 2 -10 10 -14 8 -3 15 -13 15 -21 0 -9 7 -23 15
-32 8 -8 13 -19 10 -24 -4 -5 -1 -9 4 -9 6 0 11 -7 11 -15 0 -8 4 -15 9 -15 5
0 11 -8 14 -17 4 -10 20 -40 37 -68 17 -27 33 -58 37 -67 3 -10 8 -16 12 -14
4 3 8 -5 8 -17 1 -12 7 -23 13 -25 5 -2 10 -10 10 -18 0 -8 5 -14 10 -14 6 0
10 -7 10 -16 0 -8 7 -23 16 -32 11 -11 13 -17 5 -20 -6 -2 -8 -9 -5 -14 5 -7
2 -8 -5 -3 -19 11 -141 12 -142 0 0 -5 -3 -4 -6 3 -6 16 -33 16 -34 0 0 -8 -2
-9 -5 -2 -2 6 -23 9 -46 7 -22 -2 -47 2 -55 8 -10 9 -12 9 -8 -2 4 -10 -1 -15
-15 -15 -11 0 -20 3 -20 6 0 10 -125 5 -132 -5 -5 -6 -8 -5 -8 3 0 6 -7 12
-15 12 -8 0 -15 -6 -16 -12 0 -8 -2 -9 -5 -2 -2 6 -23 9 -46 7 -22 -2 -47 2
-55 8 -10 9 -12 9 -8 -2 4 -10 -1 -15 -15 -15 -11 0 -20 3 -20 6 0 3 -18 5
-40 5 -22 1 -40 -4 -40 -9 0 -6 -5 -5 -11 1 -6 6 -17 9 -24 6 -8 -2 -23 0 -34
6 -18 10 -20 9 -14 -6 5 -14 3 -15 -7 -6 -7 7 -9 17 -4 25 5 7 10 24 12 38 2
14 7 26 12 28 5 2 7 9 4 15 -5 15 52 51 66 42 6 -4 9 -1 8 7 -2 8 7 13 22 14
14 0 24 5 23 10 -1 6 3 11 10 12 18 1 38 7 72 21 66 26 85 36 85 44 0 5 4 6
10 2 5 -3 18 3 30 15 11 11 25 20 30 20 6 0 10 3 10 8 0 4 10 18 23 32 21 23
41 59 37 69 -1 2 3 7 9 10 6 4 12 19 13 34 1 15 9 29 16 32 9 3 11 10 5 18 -4
6 -8 27 -8 45 0 17 -3 32 -8 32 -4 0 -6 4 -3 9 4 5 2 20 -3 33 -7 19 -6 25 4
25 8 0 12 -4 9 -8z m-527 -122 c0 -8 -6 -14 -14 -14 -9 0 -10 4 -2 14 6 7 12
13 14 13 1 0 2 -6 2 -13z"/>
<path d="M775 1230 c-3 -6 -4 -14 0 -19 3 -5 1 -13 -5 -16 -6 -4 -9 -1 -8 6 2
6 -3 14 -11 16 -10 4 -11 1 -3 -13 5 -9 17 -19 27 -20 13 -2 16 3 12 21 l-4
24 28 -20 c32 -22 40 -13 11 11 -23 19 -39 22 -47 10z"/>
<path d="M694 1189 c-5 -9 3 -13 19 -10 4 1 18 -4 30 -11 19 -10 20 -9 9 4
-16 19 -50 29 -58 17z"/>
<path d="M660 1186 c0 -2 8 -10 18 -17 15 -13 16 -12 3 4 -13 16 -21 21 -21
13z"/>
<path d="M705 1150 c-3 -6 1 -7 9 -4 18 7 21 14 7 14 -6 0 -13 -4 -16 -10z"/>
<path d="M647 1107 c-10 -10 -17 -20 -15 -22 6 -6 40 24 37 32 -2 5 -12 0 -22
-10z"/>
<path d="M630 461 c0 -6 4 -13 10 -16 6 -3 7 1 4 9 -7 18 -14 21 -14 7z"/>
</g>
</svg>
